<?xml version="1.0" encoding="UTF-8" standalone="no"?>
<!DOCTYPE svg PUBLIC "-//W3C//DTD SVG 1.1//EN" "http://www.w3.org/Graphics/SVG/1.1/DTD/svg11.dtd">
<svg width="100%" height="100%" viewBox="0 0 175 171" version="1.1" xmlns="http://www.w3.org/2000/svg" xmlns:xlink="http://www.w3.org/1999/xlink" xml:space="preserve" xmlns:serif="http://www.serif.com/" style="fill-rule:evenodd;clip-rule:evenodd;stroke-linejoin:round;stroke-miterlimit:2;">
    <g transform="matrix(1,0,0,1,-434.503805,-805.895765)">
        <g transform="matrix(1.683582,0,0,1.683582,-558.088854,-2061.794732)">
            <g transform="matrix(0.442025,0,0,0.437795,419.871376,1097.781061)">
                <path d="M468.932,1413.688C470.035,1396.526 484.276,1383.171 501.473,1383.171C518.669,1383.171 532.91,1396.526 534.013,1413.688L535.241,1432.786L550.938,1421.838C565.043,1412 584.363,1414.808 595.085,1428.253C605.808,1441.698 604.245,1461.159 591.515,1472.721L577.349,1485.588L595.695,1491.035C612.181,1495.929 622.033,1512.785 618.206,1529.55C614.379,1546.316 598.19,1557.228 581.213,1554.485L562.321,1551.432L569.501,1569.171C575.954,1585.112 568.918,1603.323 553.424,1610.785C537.93,1618.246 519.305,1612.392 510.865,1597.409L501.473,1580.735L492.08,1597.409C483.64,1612.392 465.015,1618.246 449.521,1610.785C434.027,1603.323 426.991,1585.112 433.444,1569.171L440.624,1551.432L421.732,1554.485C404.755,1557.228 388.566,1546.316 384.739,1529.55C380.912,1512.785 390.764,1495.929 407.25,1491.035L425.596,1485.588L411.43,1472.721C398.7,1461.159 397.138,1441.698 407.86,1428.253C418.582,1414.808 437.902,1412 452.007,1421.838L467.704,1432.786L468.932,1413.688Z" style="fill:rgb(0,62,31);"/>
            </g>
            <g transform="matrix(1.111725,0,0,0.603492,254.684359,970.668447)">
                <ellipse cx="348.873" cy="1299.551" rx="20.579" ry="38.353" style="fill:rgb(233,118,43);"/>
            </g>
        </g>
    </g>
</svg>
